<svg xmlns="http://www.w3.org/2000/svg" xmlns:xlink="http://www.w3.org/1999/xlink" width="500" zoomAndPan="magnify" viewBox="0 0 375 239.999995" height="320" preserveAspectRatio="xMidYMid meet" version="1.0"><defs><clipPath id="8f7a917983"><path d="M 19 18 L 354 18 L 354 225.1875 L 19 225.1875 Z M 19 18 " clip-rule="nonzero"/></clipPath></defs><path fill="#000000" d="M 222.886719 76.765625 C 222.886719 80.957031 219.488281 84.347656 215.296875 84.347656 C 211.101562 84.347656 207.707031 80.957031 207.707031 76.765625 C 207.707031 72.574219 211.101562 69.179688 215.296875 69.179688 C 219.488281 69.179688 222.886719 72.574219 222.886719 76.765625 Z M 222.886719 76.765625 " fill-opacity="1" fill-rule="nonzero"/><g clip-path="url(#8f7a917983)"><path fill="#000000" d="M 216.042969 121.644531 C 211.390625 121.644531 205.007812 126.175781 200.371094 133.183594 C 194.597656 141.941406 191.507812 153.886719 194.582031 166.882812 C 205.636719 161.082031 213.207031 151.96875 217.214844 144.214844 C 222.835938 133.320312 222.425781 124.359375 218.828125 122.324219 C 218.011719 121.867188 217.078125 121.644531 216.042969 121.644531 Z M 196.789062 173.808594 C 200.746094 183.71875 208.453125 194 221.339844 203.792969 C 242.105469 219.570312 266.320312 222.507812 289.515625 212.089844 C 319.804688 198.480469 342.777344 165.304688 345.359375 131.421875 C 348.332031 92.460938 342.097656 63.785156 326.800781 46.171875 C 315.949219 33.679688 300.246094 26.671875 280.140625 25.367188 C 224.636719 21.769531 191.355469 57.726562 164.511719 91.730469 C 145.96875 115.214844 128.105469 133.863281 111.449219 147.320312 C 118.699219 153.769531 127.835938 159.894531 139.328125 165.238281 C 159.058594 174.417969 175.308594 174.300781 187.960938 169.804688 C 183.902344 154.277344 187.585938 139.835938 194.53125 129.316406 C 202.5625 117.132812 214.261719 111.617188 222.359375 116.214844 C 230.238281 120.679688 230.714844 133.542969 223.53125 147.472656 C 218.8125 156.515625 209.847656 167.222656 196.789062 173.808594 Z M 261.90625 225.289062 C 246.285156 225.289062 230.96875 219.945312 217.0625 209.390625 C 203.089844 198.785156 194.632812 187.535156 190.199219 176.609375 C 176.109375 181.613281 158.09375 181.765625 136.324219 171.636719 C 123.691406 165.746094 113.707031 158.910156 105.847656 151.664062 C 84.925781 167.324219 66.082031 174.4375 50.457031 172.144531 C 36.621094 170.125 26.058594 160.878906 19.894531 145.386719 C 19.183594 143.585938 20.066406 141.535156 21.867188 140.820312 C 23.664062 140.109375 25.71875 140.992188 26.449219 142.789062 C 31.695312 155.992188 40.117188 163.523438 51.476562 165.171875 C 64.960938 167.140625 81.835938 160.625 100.769531 146.605469 C 71.597656 115.402344 77.710938 79.140625 77.796875 78.664062 C 78.152344 76.746094 79.988281 75.476562 81.90625 75.832031 C 83.824219 76.1875 85.082031 78.019531 84.742188 79.9375 C 84.433594 81.683594 79.121094 114.078125 106.289062 142.382812 C 122.742188 129.214844 140.585938 110.683594 158.976562 87.386719 C 186.921875 51.972656 221.613281 14.523438 280.597656 18.359375 C 302.671875 19.800781 319.992188 27.605469 332.132812 41.570312 C 348.703125 60.644531 355.511719 91.070312 352.390625 131.964844 C 349.605469 168.308594 324.949219 203.910156 292.398438 218.519531 C 282.296875 223.035156 272.042969 225.289062 261.90625 225.289062 Z M 261.90625 225.289062 " fill-opacity="1" fill-rule="nonzero"/></g></svg>